<?xml version='1.0' encoding='iso-8859-1'?>
<!DOCTYPE svg PUBLIC '-//W3C//DTD SVG 1.1//EN' 'http://www.w3.org/Graphics/SVG/1.1/DTD/svg11.dtd'>
<!-- Uploaded to: SVG Repo, www.svgrepo.com, Generator: SVG Repo Mixer Tools -->
<svg fill="#000000" height="800px" width="800px" version="1.1" xmlns="http://www.w3.org/2000/svg" viewBox="0 0 214.33 214.33" xmlns:xlink="http://www.w3.org/1999/xlink" enable-background="new 0 0 214.33 214.33">
  <path d="m150.566,66.422h-3.35v-17.785c0-4.142-3.357-7.5-7.5-7.5h-9.137l-12.688-36.123c-1.056-3.004-3.893-5.014-7.077-5.014h-7.301c-3.184,0-6.021,2.01-7.076,5.014l-12.689,36.123h-9.135c-4.142,0-7.5,3.358-7.5,7.5v17.785h-3.35c-4.142,0-7.5,3.358-7.5,7.5v132.908c0,4.142 3.358,7.5 7.5,7.5h86.803c4.142,0 7.5-3.358 7.5-7.5v-132.908c0-4.142-3.357-7.5-7.5-7.5zm-43.402-46.685l7.518,21.399h-15.036l7.518-21.399zm-25.051,36.4h6.949 36.203 0.02 6.932v10.285h-50.104v-10.285zm60.953,143.193h-71.802v-117.908h3.311c0.014,0 0.026,0.002 0.039,0.002h65.104c0.013,0 0.025-0.002 0.038-0.002h3.312v117.908z"/>
</svg>